:SAMPLES-PER-SECOND 30
:FULLY-SPECIFIED
:DEGREES
652
root  41.9253 39.3152 20.2339 177.25 -47.6281 173.96
RightUpLeg  -16.2548 -27.1201 3.61508
RightLeg  17.7584 -7.11607 -2.20609
RightFoot  -6.3775 -0.18705 3.33587
RightToes  0.00048216 0.542163 -0.142577
Spine  26.7378 -2.13154 -0.475482
Spine1  5.79952 -2.93597 1.73526
HEad  -5.02069 5.61861 -2.26489
LeftShoulder1  10.6196 -15.0646 -49.9341
LeftArm  -11.0594 15.4007 -23.2997
LeftForeArm  34.4728 -34.8191 -5.78579
LeftHand  -0.25398 0.0180481 5.50724
RightShoulder  5.2463 9.21709 35.276
RightArm  0.0450741 -18.6601 36.3935
RightForeArm  -2.67657 33.8248 7.69222
RightHand  -2.63914 7.19703 -24.3983
LeftUpLeg  11.3113 6.22308 -4.20558
LeftLeg  12.2604 16.969 -2.26838
LeftFoot  -16.5576 0.136674 0.813053
LeftToes  1.06245e-005 4.65856e-005 -8.18504e-006
653
root  40.6293 39.0129 19.572 177.634 -48.5779 172.546
RightUpLeg  -15.1034 -24.8645 2.76224
RightLeg  10.4474 -17.2962 1.48298
RightFoot  -5.22959 -0.213489 3.31688
RightToes  0.00048216 0.542163 -0.142577
Spine  25.1042 -2.08123 -1.45744
Spine1  6.33618 -3.26548 2.29747
HEad  -5.29814 4.98763 -2.01852
LeftShoulder1  10.4922 -14.9655 -49.6011
LeftArm  -10.4196 14.4774 -23.7572
LeftForeArm  35.1409 -35.2275 -5.85255
LeftHand  -0.25398 0.0180481 5.50724
RightShoulder  5.19704 9.10544 35.2511
RightArm  -0.0984115 -19.3165 35.8506
RightForeArm  -3.44839 34.0615 7.80074
RightHand  -2.58947 6.93282 -24.4434
LeftUpLeg  14.817 5.11704 -6.01878
LeftLeg  11.2703 17.9633 -2.25291
LeftFoot  -17.9901 0.186968 1.3629
LeftToes  1.06245e-005 4.65856e-005 -8.18504e-006
654
root  39.2369 38.633 18.8349 178.301 -49.366 171.397
RightUpLeg  -12.664 -12.0298 -1.34665
RightLeg  1.02135 -36.5361 9.17493
RightFoot  -3.44582 -0.388572 5.20276
RightToes  0.00048216 0.542163 -0.142577
Spine  22.8376 -2.05908 -1.99837
Spine1  6.7807 -3.45108 2.75044
HEad  -5.1127 4.8582 -1.82336
LeftShoulder1  10.3501 -14.839 -49.2667
LeftArm  -9.5138 13.6111 -24.2744
LeftForeArm  35.5033 -34.7916 -5.72167
LeftHand  -0.25398 0.0180481 5.50724
RightShoulder  5.15294 8.96501 35.3596
RightArm  -0.0311375 -20.3967 34.9592
RightForeArm  -3.8518 33.8653 7.76868
RightHand  -2.51577 6.71435 -24.1857
LeftUpLeg  18.0361 4.9131 -7.29557
LeftLeg  10.5632 18.1681 -2.34841
LeftFoot  -19.9238 0.206479 1.17947
LeftToes  1.06245e-005 4.65856e-005 -8.18504e-006
655
root  37.7696 38.1864 18.0295 178.993 -50.4684 170.504
RightUpLeg  -11.9288 -8.36327 -2.31616
RightLeg  -5.99734 -43.6964 14.688
RightFoot  -1.81735 -0.665405 7.84698
RightToes  0.00048216 0.542163 -0.142577
Spine  20.625 -2.25826 -2.49288
Spine1  6.70949 -3.87391 3.4984
HEad  -4.79047 5.41131 -1.71861
LeftShoulder1  10.2222 -14.6988 -49.0323
LeftArm  -8.63575 13.2343 -24.7729
LeftForeArm  35.4025 -33.9236 -5.50968
LeftHand  -0.25398 0.0180481 5.50724
RightShoulder  5.08361 8.7998 35.3506
RightArm  0.415859 -21.5373 34.0352
RightForeArm  -3.87908 32.9052 7.5072
RightHand  -2.43093 6.56413 -23.6827
LeftUpLeg  20.6161 5.19208 -7.84842
LeftLeg  11.2309 17.022 -2.33239
LeftFoot  -21.9422 0.175668 0.46922
LeftToes  1.06245e-005 4.65856e-005 -8.18504e-006
656
root  36.2944 37.8685 17.2075 179.073 -51.9043 170.703
RightUpLeg  -12.3768 -8.7866 -1.74287
RightLeg  -6.07896 -45.0445 15.2976
RightFoot  -0.650435 -0.377173 4.13923
RightToes  0.00048216 0.542163 -0.142577
Spine  18.9464 -2.77091 -2.1511
Spine1  6.30231 -4.6527 4.66299
HEad  -4.56817 6.1801 -1.80236
LeftShoulder1  10.1648 -14.6066 -49.0049
LeftArm  -7.80064 13.5744 -25.1277
LeftForeArm  34.9225 -32.9895 -5.30691
LeftHand  -0.25398 0.0180481 5.50724
RightShoulder  4.96685 8.60198 35.0663
RightArm  0.786538 -22.7593 33.3257
RightForeArm  -3.74579 31.5212 7.13081
RightHand  -2.23153 5.96198 -22.9109
LeftUpLeg  22.7679 6.18185 -7.00738
LeftLeg  12.3763 14.6399 -2.10425
LeftFoot  -22.6444 0.124258 -0.115936
LeftToes  1.06245e-005 4.65856e-005 -8.18504e-006
657
root  34.7777 37.7479 16.3893 177.868 -52.6422 172.877
RightUpLeg  -14.2719 -11.306 0.63212
RightLeg  0.000230028 -43.1594 11.4916
RightFoot  -0.0766243 0.809065 -8.36436
RightToes  0.00048216 0.542163 -0.142577
Spine  17.4591 -3.38624 0.455786
Spine1  6.01427 -5.15827 5.24572
HEad  -4.44024 6.73656 -2.19211
LeftShoulder1  10.2178 -14.5732 -49.3518
LeftArm  -6.78312 14.2652 -25.2058
LeftForeArm  34.18 -31.6799 -5.0347
LeftHand  -0.25398 0.0180481 5.50724
RightShoulder  4.86497 8.42809 34.8152
RightArm  0.469521 -24.2203 32.627
RightForeArm  -4.0283 30.1092 6.78259
RightHand  -1.95152 4.88689 -22.1464
LeftUpLeg  24.8542 9.64094 -3.60143
LeftLeg  13.542 10.1128 -1.65582
LeftFoot  -21.8993 -0.0410274 -1.83676
LeftToes  1.06245e-005 4.65856e-005 -8.18504e-006
658
root  33.1395 37.6484 15.5229 175.84 -51.5601 176.145
RightUpLeg  -18.815 -22.0153 7.01641
RightLeg  12.4726 -31.6245 1.86428
RightFoot  -1.32392 1.77935 -20.1744
RightToes  0.00048216 0.542163 -0.142577
Spine  15.7343 -3.69668 4.86302
Spine1  5.63331 -4.71204 4.38648
HEad  -4.13788 7.39383 -2.87258
LeftShoulder1  10.2759 -14.4793 -49.8907
LeftArm  -5.57919 14.9287 -25.2972
LeftForeArm  32.9781 -29.3414 -4.56093
LeftHand  -0.25398 0.0180481 5.50724
RightShoulder  4.8613 8.3835 34.9344
RightArm  -0.125159 -25.57 31.6587
RightForeArm  -5.39422 28.2886 6.4034
RightHand  -1.78174 4.11217 -21.8566
LeftUpLeg  26.6119 17.1367 2.81889
LeftLeg  16.9278 1.46842 -1.36966
LeftFoot  -20.1772 -0.359731 -6.34997
LeftToes  1.06245e-005 4.65856e-005 -8.18504e-006
659
root  31.5619 37.6522 14.6345 173.875 -48.7825 179.455
RightUpLeg  -22.7318 -33.4007 15.0469
RightLeg  19.0113 -16.8248 -4.03727
RightFoot  -2.93481 1.74926 -23.5622
RightToes  0.00048216 0.542163 -0.142577
Spine  14.4927 -3.54109 9.31395
Spine1  4.84737 -3.65852 3.28184
HEad  -3.39058 8.7783 -3.63427
LeftShoulder1  10.1889 -14.2542 -50.0927
LeftArm  -4.43425 15.767 -25.9082
LeftForeArm  30.9574 -26.0499 -3.93695
LeftHand  -0.25398 0.0180481 5.50724
RightShoulder  4.92507 8.47356 35.1562
RightArm  -0.0273161 -26.191 30.713
RightForeArm  -7.60631 25.7353 5.90673
RightHand  -1.76135 3.97723 -21.909
LeftUpLeg  26.1201 23.5156 9.07905
LeftLeg  24.0921 -5.48364 -2.07394
LeftFoot  -14.7734 -0.245669 -11.6357
LeftToes  1.06245e-005 4.65856e-005 -8.18504e-006
